<?xml version="1.0" encoding="utf-8"?>
<!-- Generator: Adobe Illustrator 26.3.1, SVG Export Plug-In . SVG Version: 6.00 Build 0)  -->
<svg version="1.1" id="레이어_1" xmlns="http://www.w3.org/2000/svg" xmlns:xlink="http://www.w3.org/1999/xlink" x="0px"
	 y="0px" viewBox="0 0 444.2 776" style="enable-background:new 0 0 444.2 776;" xml:space="preserve">
<style type="text/css">
	.st0{fill:#00979F;}
</style>
<g>
	
		<ellipse transform="matrix(0.9977 -6.826130e-02 6.826130e-02 0.9977 -4.1319 15.3778)" class="st0" cx="222.9" cy="68.1" rx="68.1" ry="68.1"/>
	<path class="st0" d="M439.7,405.6L335.2,202.3c-0.1-0.1-0.1-0.2-0.2-0.3l-1.1-2.2c-0.8-1.3-1.6-2.5-2.5-3.7
		c-13.9-20.4-37.2-33.9-63.6-33.9H178c-24.6,0-46.5,11.7-60.6,29.8c-2.4,2.2-4.5,4.8-6.2,7.8L5.5,405.6
		c-9.4,16.2-3.7,37.2,12.5,46.5c16.2,9.4,37.2,3.7,46.5-12.5l80.3-156.3v183.5v21.4V742c0,18.7,15.3,34.1,34.1,34.1
		S213,760.7,213,742V488.3h19.9V742c0,18.7,15.3,34.1,34.1,34.1S301,760.7,301,742V488.3v-21.4V284.6l79.7,155.1
		c9.4,16.2,30.3,21.8,46.5,12.5C443.4,442.8,449,421.9,439.7,405.6z"/>
</g>
</svg>
