<?xml version="1.0" encoding="utf-8"?>
<!-- Generator: Adobe Illustrator 26.3.1, SVG Export Plug-In . SVG Version: 6.00 Build 0)  -->
<svg version="1.1" id="레이어_1" xmlns="http://www.w3.org/2000/svg" xmlns:xlink="http://www.w3.org/1999/xlink" x="0px"
	 y="0px" viewBox="0 0 1197.2 642" style="enable-background:new 0 0 1197.2 642;" xml:space="preserve">
<style type="text/css">
	.st0{fill:#FFFFFF;}
	
		.st1{fill:none;stroke:#2666BC;stroke-width:4;stroke-linecap:round;stroke-miterlimit:10;stroke-dasharray:15.0085,15.0085,15.0085,15.0085,15.0085,15.0085;}
	.st2{fill:#2666BC;}
	.st3{fill:#267995;}
	.st4{fill:#ACD4E3;}
	.st5{fill:#264866;}
	.st6{clip-path:url(#SVGID_00000125580175246849749690000000754496164467518090_);fill:#CCEFF9;}
	.st7{clip-path:url(#SVGID_00000047752004002823849350000009518520197753966980_);fill:#CCEFF9;}
	.st8{clip-path:url(#SVGID_00000067918263658367777980000014507439311694175129_);fill:#CCEFF9;}
	.st9{clip-path:url(#SVGID_00000061457832176567962860000016519408980753890699_);fill:#CCEFF9;}
	.st10{clip-path:url(#SVGID_00000157290772088904867130000002342627700066165655_);fill:#CCEFF9;}
	.st11{fill:#FF8379;}
</style>
<g>
	<path class="st0" d="M1127.2,635.3H71.1c-34.5,0-62.5-28-62.5-62.5V69.1c0-34.5,28-62.5,62.5-62.5h1056.1c34.5,0,62.4,28,62.4,62.5
		v503.7C1189.6,607.3,1161.6,635.3,1127.2,635.3z"/>
	<path class="st1" d="M1127.2,635.3H71.1c-34.5,0-62.5-28-62.5-62.5V69.1c0-34.5,28-62.5,62.5-62.5h1056.1c34.5,0,62.4,28,62.4,62.5
		v503.7C1189.6,607.3,1161.6,635.3,1127.2,635.3z"/>
</g>
<g>
	<path class="st2" d="M438.7,107.3h6.4v17.1H468v5.3h-46.9v-5.3h17.6V107.3z M463.5,89.1c-0.2,10.2-0.6,20-1.9,28.3h-6.2
		c0.6-3.8,1.1-8.2,1.3-12.3c0.2-4.2,0.4-8,0.4-11h-31.9v-5H463.5z"/>
	<path class="st2" d="M473.1,125.6v-21.1h13.1V94.3h-13.1v-5h19v20H479v11.1h2.8c1.9,0,4,0,6.4-0.2c2.4,0,4.6-0.3,6.7-0.7v5.1
		c-2.1,0.4-4.3,0.6-6.7,0.7c-2.4,0.1-4.5,0.2-6.4,0.2L473.1,125.6L473.1,125.6z M508.1,134v-24.2h-5.2v23.1H497V87h5.8v17.3h5.2
		V86.2h6V134H508.1z"/>
	<path class="st2" d="M520.1,112.4v-4.7h46.9v4.7H520.1z M563.5,100.4v4.6h-39.1V93.7h32.1v-2.2h-32.1V87h38.3v11h-32.1v2.5
		L563.5,100.4L563.5,100.4z M563.5,128.9v4.6h-39.1v-11.4h32.1v-2.2h-32.1v-4.6h38.3v11.1h-32.1v2.5L563.5,128.9L563.5,128.9z"/>
	<path class="st2" d="M624.4,87.3c0,4,0,12.8-0.8,17.2h5v4.9h-46.9v-4.9h35.6c0.2-1.3,0.3-3.1,0.4-5c-4.6,0.6-10.5,0.7-16.2,0.7H585
		v-4.8h16.5c5.7,0,11.7,0,16.4-0.7c0-1.1,0-2,0-2.5h-32.5v-4.9H624.4z M625.2,128.8v4.7h-39.1V121h32.1v-3h-32.1v-4.7h38.3v12.1
		h-32.1v3.4L625.2,128.8L625.2,128.8z"/>
	<path class="st2" d="M634.2,97.5h19.4v-4.6h-19.4V88h25.5v14.3h-19.4v5.7h8.1c5.8,0,11.6-0.3,16.3-1.2v4.9
		c-4.7,0.9-10.5,1.2-16.3,1.2h-14.2V97.5z M637.8,122v-5h36.8v17.1h-6.2V122H637.8z M668.5,115.2v-29h6.2v29H668.5z"/>
	<path class="st2" d="M681,91.6h12.8v-6h6.4v6h12.4v5H681L681,91.6L681,91.6z M696.8,98.6c3.8,0,7.3,1.1,9.8,3.2c2.5,2,4,5,4,8.6
		v6.3c0,3.7-1.5,6.7-4,8.7c-2.5,2.1-6,3.1-9.8,3.1c-3.9,0-7.3-1.1-9.9-3.1c-2.5-2-4-5-4-8.7v-6.3c0-3.6,1.5-6.6,4-8.6
		C689.5,99.7,692.9,98.6,696.8,98.6z M688.5,116.2c0,4.9,3.2,7.5,8.3,7.5c5.1,0,8.3-2.7,8.3-7.5v-5.2c0-4.9-3.2-7.5-8.3-7.5
		c-5.2,0-8.3,2.7-8.3,7.5V116.2z M715.3,134V86.2h6.2v20h7.4v5.5h-7.4V134H715.3z"/>
	<path class="st2" d="M732.6,115.6v-15.4c0-7.1,6.2-12.1,13.7-12.1c6.1,0,11.4,3.5,13.1,8.6h7.4V86.1h6.2V134h-6.2v-16.4h-7.1
		c-1.1,6.1-6.9,10.1-13.5,10.1C738.8,127.7,732.6,122.8,732.6,115.6z M746.3,122.7c2.8,0,4.6-0.9,5.8-2.2c1.1-1.4,1.7-3.3,1.7-5.4
		v-14.4c0-2.1-0.5-3.9-1.7-5.4c-1.2-1.3-3.1-2.3-5.8-2.3c-2.8,0-4.7,1-5.9,2.3c-1.1,1.4-1.6,3.3-1.6,5.4V115c0,2.1,0.5,4,1.6,5.4
		C741.6,121.8,743.5,122.7,746.3,122.7z M759.9,112.3h6.9v-10.3h-6.9V112.3z"/>
	<path class="st2" d="M332.7,197.1l13.2-39.1h6.8l12.7,38.9h-6.6l-9.4-31.8l-10,32L332.7,197.1L332.7,197.1z M368.6,203.1v-47.8h6.2
		v17.5h7.5v5.5h-7.5v24.7L368.6,203.1L368.6,203.1z"/>
	<path class="st2" d="M384.6,182.2l11.4-19.6h-10.2v-5h29.5v5h-9.6l10.8,19.3h-6.7l-8.9-16.4l-9.4,16.7H384.6z M428,197.4v5h-36.6
		v-15.6h6.2v10.6H428z M420.7,190.2v-34.9h6.2v34.9L420.7,190.2L420.7,190.2z"/>
	<path class="st2" d="M432.9,179.3v-4.8h46.9v4.8H432.9z M436.2,163.6c0-4.5,3.8-7.7,10.6-7.7H466c6.8,0,10.6,3.2,10.6,7.7
		c0,4.5-3.8,7.7-10.6,7.7h-19.2C440,171.3,436.2,168.1,436.2,163.6z M476.4,198v4.7h-39.1v-12.3h32.1v-2.9h-32.1v-4.7h38.3v12h-32.1
		v3.2L476.4,198L476.4,198z M442.4,163.6c0,1.9,1.6,2.9,5.4,2.9H465c3.8,0,5.4-1,5.4-2.9s-1.7-2.9-5.4-2.9h-17.2
		C444,160.7,442.4,161.7,442.4,163.6z"/>
	<path class="st2" d="M511,156.1c7.3,0,13.1,4.2,13.8,9.4h7v-10.2h6.2v25.8h-6.2v-10.4h-7c-0.8,5.2-6.7,9.2-13.8,9.2
		c-7.9,0-13.9-4.7-13.9-10.6v-2.7C497.1,160.9,503.1,156.1,511,156.1z M531.8,182.9h6.2v19.8h-36v-19.8h6.2v5h23.6L531.8,182.9
		L531.8,182.9z M503.3,168.8c0,1.7,0.6,3.2,2,4.4c1.3,1.3,3.2,1.9,5.8,1.9c2.5,0,4.5-0.6,5.8-1.9c1.3-1.2,2-2.7,2-4.4v-1.6
		c0-1.7-0.6-3.2-2-4.5c-1.3-1.2-3.3-1.9-5.8-1.9c-2.5,0-4.5,0.6-5.8,1.9c-1.3,1.3-2,2.8-2,4.5V168.8z M508.2,197.7h23.6v-5.1h-23.6
		V197.7z"/>
	<path class="st2" d="M587,180.7v5h-16v8.4h20v5.3h-46.9v-5.3h20.5v-8.4h-16v-16.5h31.1v-6.3h-31.1v-5h37.2V174h-31.1v6.6L587,180.7
		L587,180.7z"/>
	<path class="st2" d="M593.6,198.4V193h46.9v5.3H593.6z M635.9,158.2v5h-31.6v15.2h31.9v5.1h-38v-25.3L635.9,158.2L635.9,158.2z"/>
	<path class="st2" d="M655.1,160.8h9.4v-5.4h6.2v5.4h9.4v5h-25L655.1,160.8L655.1,160.8z M667.7,167.7c3.1,0,6,1,7.9,2.8
		c2.1,1.8,3.3,4.5,3.3,7.9v8.5c0,3.5-1.2,6.2-3.3,8c-2,1.9-4.8,2.8-7.9,2.8c-3.2,0-6.1-0.9-8-2.8c-2.1-1.8-3.2-4.5-3.2-8v-8.5
		c0-3.4,1.2-6.2,3.2-7.9C661.6,168.6,664.5,167.7,667.7,167.7z M661.8,186.4c0,4.5,2.3,6.5,5.9,6.5c3.6,0,5.9-2,5.9-6.5v-7.5
		c0-4.5-2.3-6.5-5.9-6.5c-3.6,0-5.9,2-5.9,6.5V186.4z M692.7,203.1v-22.6h-4.9v21.5H682v-46h5.8V175h4.9v-19.7h6v47.8L692.7,203.1
		L692.7,203.1z"/>
	<path class="st2" d="M704.7,188v-5.3h46.9v5.3h-20.2v15.1H725V188H704.7z M706.1,178.2l16.5-16.1h-14.4v-5h39.9v5h-14.4l16.5,16.1
		h-7.4l-14.7-14l-14.7,14H706.1z"/>
	<path class="st2" d="M752.9,197.1l9.2-39.1h8l8.6,38.9h-6l-6.5-32.2l-7.1,32.5H752.9z M775.7,177.3v-5.4h6.3v-15.7h5.8v46H782
		v-24.8H775.7z M791.6,203.1v-47.8h6v47.8H791.6z"/>
	<path class="st2" d="M803.7,198.9v-5.3h11.2v-9.1h6.4v9.1H833v-9.1h6.4v9.1h11.2v5.3H803.7z M820,182.6c-3.8,0-7-1.2-9.3-3.5
		c-2.3-2.2-3.6-5.3-3.6-8.9s1.3-6.6,3.6-8.9c2.3-2.2,5.5-3.5,9.3-3.5h14.2c3.8,0,7,1.4,9.3,3.6c2.3,2.3,3.6,5.3,3.6,8.9
		c0,3.6-1.3,6.6-3.6,8.9c-2.3,2.2-5.5,3.5-9.3,3.5L820,182.6L820,182.6z M813.3,170.1c0,5,2.6,7.5,8.3,7.5h11c5.7,0,8.3-3,8.3-7.5
		c0-2.1-0.7-3.8-2-5.3c-1.3-1.4-3.5-2.2-6.3-2.2h-11C815.9,162.7,813.3,165.4,813.3,170.1z"/>
	<path class="st2" d="M861.9,202.7h-6.5v-8.2h6.5V202.7z"/>
</g>
<g>
	<path class="st3" d="M525.8,392.6c6.2,0.8,19.5,6.6,39.5-10.9c20-17.5,12-52.1,44.6-76.9c38.3-29.1,92.3-34.7,105.2-23.5
		c12.9,11.1,13.2,23.2,18.4,35.3c5.2,12.2,8.1,24,8.1,29.3c-0.1,10.5-27.9,65-78.9,77c-50.6,11.9-83.9,2.2-98.9-1.1
		c-14.5-3.1-53.6-13.7-51.7-25.9C513.5,387.2,519.6,391.8,525.8,392.6z"/>
	<path class="st4" d="M613.2,409.7c-15.3,8.3-50,7.6-71.9,6.1c8.6,2.8,17.1,4.9,22.4,6.1c15,3.2,48.3,12.9,98.9,1.1
		c51-12,78.9-66.5,78.9-77c0-2.7-0.8-7.3-2.2-12.7C677.7,330,634.9,397.8,613.2,409.7z"/>
	<path class="st5" d="M695.6,325.5c0.9,2.6-0.4,5.4-3,6.3c-2.6,0.9-5.4-0.5-6.3-3c-0.9-2.6,0.4-5.4,3-6.3
		C691.9,321.6,694.7,322.9,695.6,325.5z"/>
	<g>
		<g>
			<defs>
				<path id="SVGID_1_" d="M613.2,409.7c-15.3,8.3-50,7.6-71.9,6.1c8.6,2.8,17.1,4.9,22.4,6.1c15,3.2,48.3,12.9,98.9,1.1
					c51-12,78.9-66.5,78.9-77c0-2.7-0.8-7.3-2.2-12.7C677.7,330,634.9,397.8,613.2,409.7z"/>
			</defs>
			<clipPath id="SVGID_00000111880874711240466080000008610760972886884277_">
				<use xlink:href="#SVGID_1_"  style="overflow:visible;"/>
			</clipPath>
			<path style="clip-path:url(#SVGID_00000111880874711240466080000008610760972886884277_);fill:#CCEFF9;" d="M728.3,323
				c-7.4,2-14.6,6.9-20.9,11c-6.5,4.2-12.5,9.2-18.3,14.4c-12.8,11.7-24.4,24.7-36.8,36.7c-13.1,12.6-28.6,27.7-46.5,32.5
				c-9.1,2.4-18.7,2.8-28,3c-9.9,0.2-19.7-1.3-29.6-1.1c-0.3,0-0.4,0.6,0,0.6c18.2,3,36.5,4.1,54.8,0.9c17.9-3.1,31.8-16.2,45-27.6
				c13.2-11.4,24.7-24.7,37.2-37c13.1-12.9,27.9-23.5,43.9-32.4C729.6,323.8,729,322.8,728.3,323z"/>
		</g>
		<g>
			<defs>
				<path id="SVGID_00000140015510719974227390000011292888184608485269_" d="M613.2,409.7c-15.3,8.3-50,7.6-71.9,6.1
					c8.6,2.8,17.1,4.9,22.4,6.1c15,3.2,48.3,12.9,98.9,1.1c51-12,78.9-66.5,78.9-77c0-2.7-0.8-7.3-2.2-12.7
					C677.7,330,634.9,397.8,613.2,409.7z"/>
			</defs>
			<clipPath id="SVGID_00000142871326544628069550000014375416600700223417_">
				<use xlink:href="#SVGID_00000140015510719974227390000011292888184608485269_"  style="overflow:visible;"/>
			</clipPath>
			<path style="clip-path:url(#SVGID_00000142871326544628069550000014375416600700223417_);fill:#CCEFF9;" d="M740.7,324.3
				c-7.3,2.6-13.4,7.9-19.8,12.2c-7.8,5.3-14.9,11.4-21.9,17.7c-13,11.7-24.7,24.8-37.7,36.4c-12.1,10.8-26.6,20.2-41.2,27.4
				c-7.8,3.8-16,6.8-24.5,8.5c-8.1,1.7-16.3,1.4-24.5,1.3c-0.5,0-0.4,0.6,0,0.7c14.7,4.4,31.4,0.2,45.2-5.5
				c14.8-6.2,28.2-15.4,41-25c13.9-10.4,25.2-24.2,37.8-36.1c14.5-13.6,30.1-24.8,46.4-36C742.5,325.3,741.7,323.9,740.7,324.3z"/>
		</g>
		<g>
			<defs>
				<path id="SVGID_00000085228996784499739820000006236424090133729714_" d="M613.2,409.7c-15.3,8.3-50,7.6-71.9,6.1
					c8.6,2.8,17.1,4.9,22.4,6.1c15,3.2,48.3,12.9,98.9,1.1c51-12,78.9-66.5,78.9-77c0-2.7-0.8-7.3-2.2-12.7
					C677.7,330,634.9,397.8,613.2,409.7z"/>
			</defs>
			<clipPath id="SVGID_00000068651861322689264730000008490150248949572234_">
				<use xlink:href="#SVGID_00000085228996784499739820000006236424090133729714_"  style="overflow:visible;"/>
			</clipPath>
			<path style="clip-path:url(#SVGID_00000068651861322689264730000008490150248949572234_);fill:#CCEFF9;" d="M742.7,326.5
				c-4.8,3.4-7.9,8.4-12,12.5c-5.1,5-10.7,9.5-16,14.3c-11,10.1-21.3,21.1-31.8,31.7c-10.7,10.9-21.5,21.7-34.1,30.5
				c-6.1,4.3-13,7.3-19.8,10.6c-5.3,2.5-12.5,7.4-18.5,7c-0.8,0-0.8,1.2-0.1,1.3c5,0.7,9.5-1.9,14-3.5c6.7-2.4,13.2-5.7,19.6-9
				c13.2-6.8,24.2-17.5,34.6-27.8c11.1-11,21.9-22.2,33-33.1c5.6-5.5,11.5-10.6,17.3-15.9c5.7-5.2,9.8-11.6,15.2-17
				C744.9,327.2,743.6,325.8,742.7,326.5z"/>
		</g>
		<g>
			<defs>
				<path id="SVGID_00000119836529845979960670000003183993882043591097_" d="M613.2,409.7c-15.3,8.3-50,7.6-71.9,6.1
					c8.6,2.8,17.1,4.9,22.4,6.1c15,3.2,48.3,12.9,98.9,1.1c51-12,78.9-66.5,78.9-77c0-2.7-0.8-7.3-2.2-12.7
					C677.7,330,634.9,397.8,613.2,409.7z"/>
			</defs>
			<clipPath id="SVGID_00000105410567711238393410000006537769824166055865_">
				<use xlink:href="#SVGID_00000119836529845979960670000003183993882043591097_"  style="overflow:visible;"/>
			</clipPath>
			<path style="clip-path:url(#SVGID_00000105410567711238393410000006537769824166055865_);fill:#CCEFF9;" d="M749.7,331.9
				c-8.8,10.2-17.4,20.2-26.5,30c-9.5,10.1-18.8,20.4-28.3,30.5c-9.3,9.9-20,18.4-31.3,25.9c-5.7,3.8-11.9,6.9-18,9.9
				c-2.9,1.4-5.8,2.8-8.6,4.2c-0.9,0.4-3.4,2.9-4,2.8c-0.4-0.1-0.6,0.5-0.2,0.7c1.8,0.8,7-2.6,8.5-3.2c6.6-2.6,13-5.8,19.2-9.1
				c12-6.5,23.1-15.8,32.9-25.2c10.9-10.5,20.8-22,31-33.1c9.6-10.4,19.8-20.2,26.7-32.7C751.4,331.9,750.2,331.3,749.7,331.9z"/>
		</g>
		<g>
			<defs>
				<path id="SVGID_00000040559244353214839510000008256162971371985849_" d="M613.2,409.7c-15.3,8.3-50,7.6-71.9,6.1
					c8.6,2.8,17.1,4.9,22.4,6.1c15,3.2,48.3,12.9,98.9,1.1c51-12,78.9-66.5,78.9-77c0-2.7-0.8-7.3-2.2-12.7
					C677.7,330,634.9,397.8,613.2,409.7z"/>
			</defs>
			<clipPath id="SVGID_00000048464966131731613010000015095388092651096249_">
				<use xlink:href="#SVGID_00000040559244353214839510000008256162971371985849_"  style="overflow:visible;"/>
			</clipPath>
			<path style="clip-path:url(#SVGID_00000048464966131731613010000015095388092651096249_);fill:#CCEFF9;" d="M751,341.4
				c-7,8.5-13.2,17.5-20.4,25.7c-7.8,8.9-16,17.5-24.4,25.9c-7.7,7.7-15.9,14.9-24.4,21.8c-2.7,2.2-5.3,4.5-8,6.6
				c-2.3,1.8-6.5,5.7-9.6,4.8c-0.7-0.2-1,0.9-0.4,1.2c5,2,11.6-4.5,15.1-7.2c7.5-5.9,14.9-11.8,21.9-18.3c9.9-9.1,19.2-19,28.3-28.8
				c8.6-9.2,18-19.3,22.6-31.2C751.9,341.5,751.3,341,751,341.4z"/>
		</g>
	</g>
	<path class="st3" d="M643.4,359.5c-9.4,10.5-6.9,41.2-2.1,43.6s28.6-12,29.2-34.4C671.1,343,654.1,347.5,643.4,359.5z"/>
	<path class="st3" d="M508,334.4c-3.5,0.6-10,10.8-12.2,19.4c-2.6,10.1,0.6,24.5,1,25.2c-0.8-0.2-15.6,0.6-24.6,5.8
		c-7.7,4.4-15.8,13.4-15.5,16.9c0.3,3.5,14.7,1.7,22.9,5.9c8.2,4.2,31.1,7.2,43.2-8.7c12.1-15.9,3.2-37.3-3-44
		C513.5,348.1,511.4,333.8,508,334.4z"/>
	<path class="st5" d="M738.5,330.7c-3.9,1.8-8.6,1.5-12.9,1.9c-6.2,0.6-12.1,1.4-18.1,2.7c-4.9,1.1-9.5,3.4-14,5.7
		c-5.2,2.7-10.8,6.4-16.9,5.1c-1.2-0.2-1.8,1.2-0.9,2c3.3,3.1,7.8,1.6,11.6,0.4c6.8-2.2,12.8-6.6,19.7-8.7
		c8.1-2.5,16.6-2.3,24.8-3.6c3.4-0.5,7.6-0.5,7.5-4.9C739.3,330.8,738.8,330.5,738.5,330.7z"/>
</g>
<g>
	<path class="st11" d="M99.9,517.2c5.9,0,10.5,3.4,11.1,7.6h5.7v-8.2h5v20.8h-5V529H111c-0.7,4.2-5.4,7.4-11.1,7.4
		c-6.4,0-11.2-3.8-11.2-8.5v-2.1C88.6,521.1,93.5,517.2,99.9,517.2z M116.6,538.8h5v16h-29v-16h5v4.1h19V538.8z M93.6,527.5
		c0,1.4,0.5,2.6,1.6,3.6c1.1,1,2.6,1.5,4.7,1.5c2,0,3.6-0.5,4.7-1.5c1.1-1,1.6-2.2,1.6-3.6v-1.3c0-1.4-0.5-2.6-1.6-3.6
		c-1.1-1-2.7-1.5-4.7-1.5c-2.1,0-3.6,0.5-4.7,1.5c-1.1,1-1.6,2.2-1.6,3.6V527.5z M97.5,550.8h19v-4.1h-19V550.8z"/>
	<path class="st11" d="M161.1,537.1v4h-12.9v6.8h16.1v4.3h-37.8v-4.3h16.5v-6.8h-12.9v-13.3h25v-5.1h-25v-4h30v13h-25v5.4H161.1z"/>
	<path class="st11" d="M166.4,551.3V547h37.8v4.3H166.4z M200.5,519v4h-25.5v12.3h25.7v4.1h-30.7V519L200.5,519L200.5,519z"/>
	<path class="st11" d="M241,518.5v4h-16.9v6.7h17.1v4h-8.4v3.9c4.5,0,8.3-0.2,11.5-0.9v3.9c-3.8,0.8-8.4,0.9-13.9,0.9h-13.9v-4h11.2
		v-3.9h-8.6v-14.6H241z M252,550.7v3.9h-29.5v-11h5v7L252,550.7L252,550.7z M246.1,546.1v-29.5h5v29.5H246.1z"/>
	<path class="st11" d="M264.8,550.3l10.6-31.6h5.5l10.2,31.3h-5.3l-7.5-25.6l-8.1,25.8L264.8,550.3L264.8,550.3z M293.7,555.2v-38.5
		h5v14.2h6v4.5h-6v19.9L293.7,555.2L293.7,555.2z"/>
	<path class="st11" d="M306.6,538.3l9.2-15.8h-8.2v-4h23.8v4h-7.7l8.8,15.6h-5.4l-7.2-13.2l-7.5,13.5L306.6,538.3L306.6,538.3z
		 M341.6,550.6v4h-29.5V542h5v8.6L341.6,550.6L341.6,550.6z M335.7,544.7v-28.1h5v28.1H335.7z"/>
	<path class="st11" d="M383.4,540.3h-37.8v-4h37.8V540.3z M348.2,525.2c0-2.2,0.9-4.1,2.4-5.5c1.5-1.4,3.8-2.3,6.6-2.3h14.6
		c2.9,0,5.2,0.8,6.7,2.3s2.3,3.3,2.3,5.5s-0.8,4-2.3,5.5c-1.5,1.5-3.8,2.3-6.7,2.3h-14.6c-2.7,0-5-0.9-6.6-2.2
		C349.1,529.4,348.2,527.4,348.2,525.2z M380.6,550.6v4h-31.3v-11.9h5v7.8H380.6z M353.2,525.2c0,2.4,1.7,3.9,5,3.9h12.7
		c3.2,0,5-1.5,5-3.9c0-2.4-1.8-4-5-4h-12.7C354.9,521.2,353.2,522.8,353.2,525.2z"/>
	<path class="st11" d="M397.3,540.3v-12.4c0-5.7,5-9.8,11-9.8c5.9,0,11,4.1,11,9.8v3h5.6v-14.2h5v38.5h-5v-20h-5.6v5.2
		c0,5.8-5.1,9.8-11,9.8C402.3,550.1,397.3,546.2,397.3,540.3z M408.3,546.1c2.2,0,3.7-0.7,4.7-1.8c0.9-1.2,1.3-2.7,1.3-4.4v-11.6
		c0-1.7-0.4-3.2-1.3-4.3c-1-1.1-2.5-1.8-4.7-1.8c-2.3,0-3.8,0.8-4.8,1.8c-0.9,1.2-1.3,2.7-1.3,4.3v11.6c0,1.7,0.4,3.2,1.3,4.4
		C404.5,545.3,406,546.1,408.3,546.1z"/>
	<path class="st11" d="M462.6,543.3v4.1c-3.8,0.7-8.5,0.9-13.1,0.9h-11.8v-29h21.6v4h-16.6v20.9h6.8
		C454.2,544.3,458.9,544.1,462.6,543.3z M464.8,516.6h5v38.5h-5V516.6z"/>
	<path class="st11" d="M485.1,518.1c2.4,0,4.5,1,6,2.6c1.5,1.7,2.4,3.9,2.4,6.5v3.7h3.9v-13.6h4.7v37h-4.7v-19.2h-3.9v5.1
		c0,2.7-0.9,4.9-2.4,6.6c-1.5,1.6-3.6,2.5-6,2.5c-2.4,0-4.6-0.9-6.1-2.5c-1.5-1.7-2.4-3.9-2.4-6.6v-13c0-2.6,0.9-4.8,2.4-6.5
		C480.5,519.1,482.6,518.1,485.1,518.1z M485.1,545.2c2.7,0,3.7-2.1,3.7-5.5v-12.1c0-3.3-1-5.5-3.7-5.5c-2.7,0-3.7,2.2-3.7,5.5v12.1
		C481.4,543.1,482.3,545.2,485.1,545.2z M505.2,555.2v-38.5h4.8v38.5H505.2z"/>
	<path class="st11" d="M549.1,519v4h-25.5v11.8h25.7v4.1h-12.7v8.5h16.1v4.3h-37.8v-4.3h16.5V539h-12.9v-20L549.1,519L549.1,519z"/>
	<path class="st11" d="M574.6,523.4h-8.5v-4h23.8v4h-8.1l9.1,26.7h-5.2l-7.5-23.2l-8,23.4h-5.2L574.6,523.4z M594.2,534.9h-6.4v-4.3
		h6.4v-14h5v38.5h-5V534.9z"/>
	<path class="st11" d="M605,536.9l9-14.5h-8.1v-4h23.8v4h-7.6l8.7,14.3h-5.4l-7.2-12.5l-7.5,12.7H605z M608.7,547.4
		c0-4.3,3.6-7.7,9-7.7h11.8c2.8,0,5.1,0.7,6.7,2.2s2.4,3.3,2.4,5.5c0,2.2-0.8,4-2.4,5.5c-1.6,1.5-3.8,2.2-6.7,2.2h-11.8
		C612.4,555,608.7,551.7,608.7,547.4z M613.7,547.4c0,2.4,1.5,3.7,5,3.7h10c3.4,0,5-1.4,5-3.7c0-2.3-1.6-3.7-5-3.7h-10
		C615.2,543.6,613.7,545.1,613.7,547.4z M632.8,538.3v-21.7h5v7.9h5.6v4.5h-5.6v9.3L632.8,538.3L632.8,538.3z"/>
	<path class="st11" d="M669.3,519.4v4H652v10.4h17.5v4.1h-8.5v7.5c4.5,0,8.4-0.2,11.6-0.9v4.2c-3.8,0.8-8.4,0.9-13.9,0.9h-13.9v-4.3
		h11v-7.5H647v-18.5L669.3,519.4L669.3,519.4z M674.4,555.2v-38.5h5v38.5H674.4z"/>
	<path class="st11" d="M703.9,549.9h-5c0.8-4.4,1.4-8.9,1.7-13.5c0.3-4.6,0.4-8.9,0.4-13h-15v-4h20.2
		C706.1,529.9,705.7,540.6,703.9,549.9z M713.8,555.2v-20.1h-6.2v-4.3h6.2v-14.2h5v38.5H713.8z"/>
	<path class="st11" d="M737.2,544.1c4.7,0,9.3-0.2,13.1-0.9v4.1c-3.8,0.7-8.4,0.9-13.1,0.9h-10.7v-29.2h5v25.1L737.2,544.1
		L737.2,544.1z M752,555.2v-38.5h5v13.7h6v4.5h-6v20.4H752z"/>
	<path class="st11" d="M773.9,543v-4.3h37.8v4.3h-9.1v12.2h-5V543H788v11.8h-5V543H773.9z M776.7,526.4c0-2.5,1-4.7,2.8-6.3
		c1.8-1.5,4.3-2.5,7.4-2.5h11.8c3,0,5.5,0.9,7.4,2.5c1.8,1.5,2.8,3.7,2.8,6.3c0,2.6-1.1,4.8-2.8,6.3c-1.8,1.5-4.3,2.4-7.4,2.4h-11.8
		c-3.1,0-5.6-0.9-7.4-2.4C777.7,531.2,776.7,529,776.7,526.4z M781.7,526.4c0,2.9,2.1,4.7,6.3,4.7h9.7c4.1,0,6.3-1.8,6.3-4.7
		s-2.1-4.7-6.3-4.7h-9.7C783.8,521.7,781.7,523.5,781.7,526.4z"/>
	<path class="st11" d="M847.9,519v4h-5.1l-0.5,12.9h6.4v4h-13.3v7.6h16.1v4.3h-37.8v-4.3h16.6v-7.6h-13.7v-4h6.3l-0.3-12.9h-5.1v-4
		H847.9z M827.7,535.8h9.6l0.5-12.9h-10.4L827.7,535.8z"/>
	<path class="st11" d="M878.5,519.4v4h-17.3v10.4h17.5v4.1h-8.4v7.5c4.5,0,8.4-0.2,11.6-0.9v4.2c-3.8,0.8-8.4,0.9-13.9,0.9h-13.9
		v-4.3h11v-7.5h-8.8v-18.5L878.5,519.4L878.5,519.4z M883.6,555.2v-38.5h5v38.5H883.6z"/>
	<path class="st11" d="M893.9,550.3l9.7-26.9H895v-4h24v4h-8.2l9.3,26.7h-5.2l-7.6-23.2l-8.2,23.5H893.9z M923,555.2v-38.5h5v38.5
		H923z"/>
	<path class="st11" d="M964,519.3c2.1,1.4,3.3,3.5,3.3,5.8v1.5c0,2.4-1.2,4.4-3.3,5.8c-2,1.4-4.8,2.2-8,2.2c-3.2,0-6-0.8-8-2.2
		c-2.1-1.4-3.2-3.4-3.2-5.8v-1.5c0-2.3,1.2-4.3,3.2-5.8c2-1.4,4.8-2.3,8-2.3C959.2,517,962,517.9,964,519.3z M960.3,550v4
		c-2.4,0.5-4.7,0.7-7.3,0.7h-5.4v-15.8h5v11.8h0.5C955.6,550.6,957.9,550.4,960.3,550z M956,530.7c4.1,0,6.3-2,6.3-4.6v-0.6
		c0-2.6-2.1-4.6-6.3-4.6s-6.3,2-6.3,4.6v0.6C949.8,528.7,951.9,530.7,956,530.7z M971.9,536.9v2.7h6.5v3.8H960v-3.8h6.9v-2.7H971.9z
		 M975.2,545.8c1.5,1.1,2.2,2.3,2.2,3.6v1c0,1.4-0.7,2.6-2.2,3.6c-1.5,1-3.5,1.5-5.9,1.5c-2.4,0-4.4-0.5-5.9-1.5
		c-1.5-1-2.2-2.2-2.2-3.6v-1c0-1.4,0.7-2.6,2.2-3.6c1.5-1,3.4-1.5,5.9-1.5C971.7,544.2,973.7,544.7,975.2,545.8z M969.3,552.2
		c2.3,0,3.6-0.9,3.6-1.9v-0.7c0-1-1.3-1.9-3.6-1.9c-2.4,0-3.6,0.9-3.6,1.9v0.7C965.7,551.3,966.9,552.2,969.3,552.2z M971.5,516.6h5
		v6.7h5.6v4.5h-5.6v7.8h-5V516.6z"/>
	<path class="st11" d="M983.1,538.1v-3.9h37.8v3.9H983.1z M984,531.8l15.4-14.8h5.2l15.4,14.8h-6l-12.1-11.3l-12.1,11.3H984z
		 M1012.4,540.2h5v14.6h-30.9v-14.6h5v3.6h20.9L1012.4,540.2L1012.4,540.2z M991.5,550.9h20.9v-3.3h-20.9V550.9z"/>
	<path class="st11" d="M1037.2,544.1c4.7,0,9.3-0.2,13.1-0.9v4.1c-3.8,0.7-8.4,0.9-13.1,0.9h-11.6v-29.2h5v25.1L1037.2,544.1
		L1037.2,544.1z M1052.5,555.2v-38.5h5v38.5H1052.5z"/>
	<path class="st11" d="M1075.8,544.4c4.7,0,9.3-0.2,13.1-0.9v4c-3.8,0.7-8.4,0.9-13.1,0.9h-10.9v-29h21.2v4h-16.2v21H1075.8z
		 M1090.7,555.2v-38.5h5v14.2h6v4.5h-6v19.9L1090.7,555.2L1090.7,555.2z"/>
	<path class="st11" d="M1109.7,554.8h-5.3v-6.6h5.3V554.8z"/>
</g>
</svg>
