<?xml version="1.0" encoding="utf-8"?>
<!-- Generator: Adobe Illustrator 26.3.1, SVG Export Plug-In . SVG Version: 6.00 Build 0)  -->
<svg version="1.1" id="레이어_1" xmlns="http://www.w3.org/2000/svg" xmlns:xlink="http://www.w3.org/1999/xlink" x="0px"
	 y="0px" viewBox="0 0 966.6 519.8" style="enable-background:new 0 0 966.6 519.8;" xml:space="preserve">
<style type="text/css">
	.st0{fill:#267995;}
	.st1{fill:#ACD4E3;}
	.st2{fill:#264866;}
	.st3{clip-path:url(#SVGID_00000029020187602263116910000008830844004683293833_);fill:#CCEFF9;}
	.st4{clip-path:url(#SVGID_00000096779269350478101560000003637300732628331440_);fill:#CCEFF9;}
	.st5{clip-path:url(#SVGID_00000078748333667986990950000017767233128988549541_);fill:#CCEFF9;}
	.st6{clip-path:url(#SVGID_00000118361068374172361890000009792758838440776073_);fill:#CCEFF9;}
	.st7{clip-path:url(#SVGID_00000175316358647305285780000008531279787189087128_);fill:#CCEFF9;}
</style>
<g>
	<path class="st0" d="M236.9,395.2c21,2.7,65.6,22.2,132.8-36.7C437,299.7,410.1,183.3,520,99.7C648.8,1.7,830.7-17,874,20.5
		c43.3,37.5,44.4,78,61.9,118.9c17.5,40.9,27.2,80.9,27.1,98.5c-0.2,35.2-93.9,218.9-265.6,259.2c-170.2,39.9-282.3,7.2-332.9-3.6
		c-48.9-10.5-180.5-46.2-173.8-87.1C195.4,377.1,215.9,392.5,236.9,395.2z"/>
	<path class="st1" d="M531,452.6c-51.4,28-168.2,25.5-241.8,20.5c29,9.5,57.6,16.6,75.3,20.4c50.6,10.8,162.7,43.5,332.9,3.6
		c171.8-40.3,265.5-224,265.6-259.2c0-9.2-2.6-24.4-7.5-42.7C748,184.5,604.1,412.8,531,452.6z"/>
	<path class="st2" d="M808.2,169.2c3,8.6-1.5,18.1-10.2,21.2s-18.1-1.5-21.2-10.1c-3-8.6,1.5-18.1,10.2-21.1
		S805.2,160.6,808.2,169.2z"/>
	<g>
		<g>
			<defs>
				<path id="SVGID_1_" d="M531,452.6c-51.4,28-168.2,25.5-241.8,20.5c29,9.5,57.6,16.6,75.3,20.4c50.6,10.8,162.7,43.5,332.9,3.6
					c171.8-40.3,265.5-224,265.6-259.2c0-9.2-2.6-24.4-7.5-42.7C748,184.5,604.1,412.8,531,452.6z"/>
			</defs>
			<clipPath id="SVGID_00000058574287349224887810000018210670753725131663_">
				<use xlink:href="#SVGID_1_"  style="overflow:visible;"/>
			</clipPath>
			<path style="clip-path:url(#SVGID_00000058574287349224887810000018210670753725131663_);fill:#CCEFF9;" d="M918.3,160.8
				c-24.9,6.6-49,23.1-70.4,37c-21.9,14.2-42.2,31-61.5,48.6c-43.1,39.3-82,83-124,123.5c-43.9,42.4-96.2,93.4-156.5,109.5
				c-30.5,8.2-62.9,9.5-94.4,10.1c-33.3,0.6-66.4-4.5-99.6-3.6c-1.2,0-1.3,1.9-0.1,2.1C372.8,498,434.6,501.7,496,491
				c60.1-10.5,106.9-54.4,151.5-93c44.5-38.5,83.2-83.1,125.1-124.3c44-43.3,93.9-79,147.8-108.9
				C922.8,163.5,920.6,160.1,918.3,160.8z"/>
		</g>
		<g>
			<defs>
				<path id="SVGID_00000103971842760239470200000011224750907179590811_" d="M531,452.6c-51.4,28-168.2,25.5-241.8,20.5
					c29,9.5,57.6,16.6,75.3,20.4c50.6,10.8,162.7,43.5,332.9,3.6c171.8-40.3,265.5-224,265.6-259.2c0-9.2-2.6-24.4-7.5-42.7
					C748,184.5,604.1,412.8,531,452.6z"/>
			</defs>
			<clipPath id="SVGID_00000057132447579449501170000011621729196793644726_">
				<use xlink:href="#SVGID_00000103971842760239470200000011224750907179590811_"  style="overflow:visible;"/>
			</clipPath>
			<path style="clip-path:url(#SVGID_00000057132447579449501170000011621729196793644726_);fill:#CCEFF9;" d="M960.1,165.2
				c-24.7,8.6-45.2,26.7-66.6,41.2c-26.1,17.8-50.2,38.4-73.7,59.5c-43.8,39.3-83,83.4-126.8,122.6c-40.8,36.5-89.4,68.1-138.6,92.1
				c-26.1,12.8-53.9,22.7-82.4,28.6c-27.3,5.7-54.8,4.6-82.5,4.3c-1.5,0-1.4,2.1-0.2,2.5c49.4,14.9,105.8,0.6,152.1-18.7
				c49.9-20.8,95-52,138-84.2c46.8-35,84.9-81.5,127.4-121.4c48.7-45.7,101.1-83.5,156.2-121C965.9,168.8,963.4,164,960.1,165.2z"/>
		</g>
		<g>
			<defs>
				<path id="SVGID_00000121983970051125718500000001658908363810175139_" d="M531,452.6c-51.4,28-168.2,25.5-241.8,20.5
					c29,9.5,57.6,16.6,75.3,20.4c50.6,10.8,162.7,43.5,332.9,3.6c171.8-40.3,265.5-224,265.6-259.2c0-9.2-2.6-24.4-7.5-42.7
					C748,184.5,604.1,412.8,531,452.6z"/>
			</defs>
			<clipPath id="SVGID_00000179607377106607830500000016362393269050952892_">
				<use xlink:href="#SVGID_00000121983970051125718500000001658908363810175139_"  style="overflow:visible;"/>
			</clipPath>
			<path style="clip-path:url(#SVGID_00000179607377106607830500000016362393269050952892_);fill:#CCEFF9;" d="M966.7,172.7
				c-16,11.4-26.5,28.2-40.4,41.9c-17.2,17-36.1,32-53.9,48.3c-37.1,34-71.8,70.9-107.2,106.8c-36.1,36.7-72.4,73-114.8,102.6
				c-20.7,14.4-43.9,24.7-66.6,35.6c-17.8,8.6-41.9,24.8-62.2,23.6c-2.5-0.2-2.7,4-0.3,4.4c16.7,2.4,32-6.4,47.3-11.8
				c22.6-8.1,44.5-19.2,65.8-30.2c44.3-22.7,81.4-58.9,116.4-93.7c37.2-37,73.6-74.8,111.1-111.5c18.9-18.5,38.8-35.8,58.3-53.6
				c19.2-17.5,32.9-39,51.1-57.2C974.3,175,969.9,170.4,966.7,172.7z"/>
		</g>
		<g>
			<defs>
				<path id="SVGID_00000143602521271248202150000010949639204250474416_" d="M531,452.6c-51.4,28-168.2,25.5-241.8,20.5
					c29,9.5,57.6,16.6,75.3,20.4c50.6,10.8,162.7,43.5,332.9,3.6c171.8-40.3,265.5-224,265.6-259.2c0-9.2-2.6-24.4-7.5-42.7
					C748,184.5,604.1,412.8,531,452.6z"/>
			</defs>
			<clipPath id="SVGID_00000117656248687953485180000013274955294399931809_">
				<use xlink:href="#SVGID_00000143602521271248202150000010949639204250474416_"  style="overflow:visible;"/>
			</clipPath>
			<path style="clip-path:url(#SVGID_00000117656248687953485180000013274955294399931809_);fill:#CCEFF9;" d="M990.3,190.8
				c-29.4,34.2-58.4,68.1-89.3,101.1c-31.9,34.1-63.4,68.6-95.3,102.7c-31.3,33.4-67.3,61.9-105.3,87.1
				c-19.3,12.8-39.9,23.3-60.7,33.5c-9.7,4.7-19.3,9.4-29,14.2c-2.9,1.4-11.4,9.7-13.6,9.4c-1.4-0.2-2.1,1.8-0.8,2.3
				c6.1,2.7,23.4-8.8,28.5-10.8c22.1-8.9,43.7-19.5,64.7-30.8c40.4-21.8,77.6-53,110.6-84.7c36.7-35.2,70-74,104.4-111.3
				c32.3-35,66.7-68.1,90-110.1C995.9,191,992.2,188.7,990.3,190.8z"/>
		</g>
		<g>
			<defs>
				<path id="SVGID_00000072971710124366449720000015099581417802276004_" d="M531,452.6c-51.4,28-168.2,25.5-241.8,20.5
					c29,9.5,57.6,16.6,75.3,20.4c50.6,10.8,162.7,43.5,332.9,3.6c171.8-40.3,265.5-224,265.6-259.2c0-9.2-2.6-24.4-7.5-42.7
					C748,184.5,604.1,412.8,531,452.6z"/>
			</defs>
			<clipPath id="SVGID_00000016042581520098190710000014839919094739960738_">
				<use xlink:href="#SVGID_00000072971710124366449720000015099581417802276004_"  style="overflow:visible;"/>
			</clipPath>
			<path style="clip-path:url(#SVGID_00000016042581520098190710000014839919094739960738_);fill:#CCEFF9;" d="M994.6,222.9
				c-23.5,28.5-44.3,58.8-68.8,86.6c-26.3,29.9-53.9,59-82,87.1c-26,26-53.6,50-82,73.4c-9,7.4-17.8,15-27.1,22.2
				c-7.7,6-21.8,19.1-32.3,16.2c-2.3-0.6-3.5,3-1.3,3.9c16.8,6.7,39.1-15,50.7-24.1c25.3-19.9,50.1-39.9,73.8-61.7
				c33.3-30.7,64.5-63.8,95.4-97c28.8-30.9,60.6-65.1,76-105.1C997.6,223,995.8,221.6,994.6,222.9z"/>
		</g>
	</g>
	<path class="st0" d="M632.6,283.6c-31.7,35.4-23.1,138.6-7.1,146.6s96.1-40.4,98.2-115.7C726,228.3,668.5,243.5,632.6,283.6z"/>
	<path class="st0" d="M176.8,199.2c-11.7,2.1-33.6,36.3-41.1,65.3c-8.8,33.9,2,82.5,3.3,85c-2.7-0.5-52.5,1.9-82.8,19.3
		C30.1,383.8,3,414,4,425.8c1,11.8,49.5,5.6,77,19.8c27.4,14.2,104.6,24.2,145.5-29.4c40.9-53.6,10.8-125.4-10.2-148.1
		C195.3,245.5,188.4,197.1,176.8,199.2z"/>
	<path class="st2" d="M952.5,186.7c-13.2,5.9-29.1,5-43.5,6.4c-20.7,2-40.7,4.7-61,9.1c-16.5,3.6-32.1,11.4-47.1,19
		c-17.5,9-36.3,21.5-56.8,17.2c-3.9-0.8-6,4.1-3.2,6.7c11.3,10.3,26.1,5.4,39.1,1.2c23-7.3,43.1-22.2,66.4-29.4
		c27.1-8.4,55.8-7.9,83.6-12c11.6-1.7,25.7-1.6,25.2-16.6C955.2,187.2,953.7,186.2,952.5,186.7z"/>
</g>
</svg>
