<?xml version="1.0" encoding="utf-8"?>
<!-- Generator: Adobe Illustrator 26.3.1, SVG Export Plug-In . SVG Version: 6.00 Build 0)  -->
<svg version="1.1" id="레이어_1" xmlns="http://www.w3.org/2000/svg" xmlns:xlink="http://www.w3.org/1999/xlink" x="0px"
	 y="0px" viewBox="0 0 444 775.7" style="enable-background:new 0 0 444 775.7;" xml:space="preserve">
<style type="text/css">
	.st0{fill:#FF8379;}
</style>
<g>
	
		<ellipse transform="matrix(0.7071 -0.7071 0.7071 0.7071 17.1037 177.4907)" class="st0" cx="222.8" cy="68.1" rx="68.1" ry="68.1"/>
	<path class="st0" d="M439.5,405.4L335.1,202.2c-0.1-0.1-0.1-0.2-0.2-0.3l-1.1-2.2c-0.8-1.3-1.6-2.5-2.5-3.7
		c-13.8-20.4-37.2-33.9-63.6-33.9h-89.8c-24.6,0-46.4,11.7-60.5,29.8c-2.4,2.2-4.5,4.8-6.2,7.8L5.5,405.4
		C-3.8,421.7,1.8,442.6,18,452c16.2,9.4,37.2,3.7,46.5-12.5l55.9-108.9L77.1,548c-2.6,13,6.1,23.6,19.3,23.6h48.4v170.1
		c0,18.7,15.3,34,34,34s34-15.3,34-34V571.5h19.9v170.1c0,18.7,15.3,34,34,34s34-15.3,34-34V571.5h47.7c13.2,0,21.9-10.6,19.3-23.6
		l-43.3-217.3l55.9,108.9c9.4,16.2,30.3,21.8,46.5,12.5C443.2,442.6,448.8,421.7,439.5,405.4z"/>
</g>
</svg>
